<?xml version="1.0" encoding="UTF-8"?>
<!--Generator: Apple Native CoreSVG 175.5-->
<!DOCTYPE svg
  PUBLIC "-//W3C//DTD SVG 1.1//EN"
  "http://www.w3.org/Graphics/SVG/1.1/DTD/svg11.dtd">
<svg
  version="1.1"
  xmlns="http://www.w3.org/2000/svg"
  width="15.9375"
  height="15.9453">
  <g>
    <rect height="15.9453" opacity="0" width="15.9375" x="0" y="0"/>
    <path d="M7.96875 15.9453C12.3281 15.9453 15.9375 12.3359 15.9375 7.97656C15.9375 3.625 12.3203 0.0078125 7.96094 0.0078125C3.60938 0.0078125 0 3.625 0 7.97656C0 12.3359 3.61719 15.9453 7.96875 15.9453ZM4.44531 8.53125C4.44531 8.42969 4.49219 8.3125 4.57812 8.21875L8.99219 2.67188C9.32812 2.25781 9.88281 2.53906 9.6875 3.05469L8.22656 6.96875L10.9609 6.96875C11.1719 6.96875 11.3281 7.11719 11.3281 7.32031C11.3281 7.42188 11.2812 7.53906 11.1953 7.64062L6.78125 13.1797C6.44531 13.5938 5.89062 13.3125 6.08594 12.7969L7.54688 8.88281L4.8125 8.88281C4.60156 8.88281 4.44531 8.73438 4.44531 8.53125Z" fill="#28cd41"/>
  </g>
</svg>
