<?xml version="1.0" encoding="UTF-8"?>
<!--Generator: Apple Native CoreSVG 175.5-->
<!DOCTYPE svg
  PUBLIC "-//W3C//DTD SVG 1.1//EN"
  "http://www.w3.org/Graphics/SVG/1.1/DTD/svg11.dtd">
<svg
  version="1.1"
  xmlns="http://www.w3.org/2000/svg"
  width="17.7188"
  height="16.2891">
  <g>
    <rect height="16.2891" opacity="0" width="17.7188" x="0" y="0"/>
    <path d="M3.09375 16.2891C4.03125 16.2891 6.36719 15.2656 7.69531 14.3125C7.82812 14.2188 7.9375 14.1797 8.04688 14.1797C8.14844 14.1875 8.25 14.1953 8.35156 14.1953C13.9844 14.1953 17.7188 10.9922 17.7188 7.10156C17.7188 3.17188 13.7812 0 8.85938 0C3.9375 0 0 3.17188 0 7.10156C0 9.60156 1.53906 11.7969 4.04688 13.1406C4.16406 13.2031 4.20312 13.3203 4.14062 13.4375C3.70312 14.1562 2.92188 15.0156 2.625 15.4062C2.32031 15.7969 2.49219 16.2891 3.09375 16.2891Z" fill="#000000" fill-opacity="0.85"/>
  </g>
</svg>
