<?xml version="1.0" encoding="UTF-8"?>
<!--Generator: Apple Native CoreSVG 175.5-->
<!DOCTYPE svg
  PUBLIC "-//W3C//DTD SVG 1.1//EN"
  "http://www.w3.org/Graphics/SVG/1.1/DTD/svg11.dtd">
<svg
  version="1.1"
  xmlns="http://www.w3.org/2000/svg"
  width="18.4219"
  height="14.3828">
  <g>
    <rect height="14.3828" opacity="0" width="18.4219" x="0" y="0"/>
    <path d="M11.0547 4.61719C10.7734 4.61719 10.5625 4.40625 10.5625 4.13281C10.5625 3.86719 10.7734 3.65625 11.0547 3.65625L15.3203 3.65625C15.5938 3.65625 15.8047 3.86719 15.8047 4.13281C15.8047 4.40625 15.5938 4.61719 15.3203 4.61719ZM11.0547 7.67969C10.7734 7.67969 10.5625 7.46094 10.5625 7.1875C10.5625 6.92188 10.7734 6.71875 11.0547 6.71875L15.3203 6.71875C15.5938 6.71875 15.8047 6.92188 15.8047 7.1875C15.8047 7.46094 15.5938 7.67969 15.3203 7.67969ZM11.0547 10.7344C10.7734 10.7344 10.5625 10.5312 10.5625 10.2656C10.5625 9.99219 10.7734 9.77344 11.0547 9.77344L15.3203 9.77344C15.5938 9.77344 15.8047 9.99219 15.8047 10.2656C15.8047 10.5312 15.5938 10.7344 15.3203 10.7344ZM2.91406 10.7891C2.65625 10.7891 2.53125 10.6172 2.53125 10.3828C2.53125 9.64844 3.625 7.75781 5.96094 7.75781C8.29688 7.75781 9.39844 9.64844 9.39844 10.3828C9.39844 10.6172 9.27344 10.7891 9.01562 10.7891ZM5.96094 7.21094C5.01562 7.21094 4.25 6.41406 4.25 5.34375C4.25 4.34375 5.01562 3.51562 5.96094 3.51562C6.91406 3.51562 7.67188 4.34375 7.67188 5.34375C7.67188 6.41406 6.91406 7.21875 5.96094 7.21094ZM2.45312 14.3828L15.9688 14.3828C17.6094 14.3828 18.4219 13.5781 18.4219 11.9688L18.4219 2.42188C18.4219 0.8125 17.6094 0 15.9688 0L2.45312 0C0.820312 0 0 0.8125 0 2.42188L0 11.9688C0 13.5781 0.820312 14.3828 2.45312 14.3828Z" fill="#ffffff" fill-opacity="0.85"/>
  </g>
</svg>
