<?xml version="1.0" encoding="UTF-8"?>
<!--Generator: Apple Native CoreSVG 175.5-->
<!DOCTYPE svg
  PUBLIC "-//W3C//DTD SVG 1.1//EN"
  "http://www.w3.org/Graphics/SVG/1.1/DTD/svg11.dtd">
<svg
  version="1.1"
  xmlns="http://www.w3.org/2000/svg"
  width="14.4844"
  height="15.0703">
  <g>
    <rect height="15.0703" opacity="0" width="14.4844" x="0" y="0"/>
    <path d="M3.96875 11.0703C6.22656 13.3281 8.96875 15.0703 11.2109 15.0703C12.2188 15.0703 13.1016 14.7188 13.8125 13.9375C14.2266 13.4766 14.4844 12.9375 14.4844 12.4062C14.4844 12.0156 14.3359 11.6406 13.9688 11.375L11.5703 9.67188C11.2031 9.42188 10.8984 9.29688 10.6172 9.29688C10.2656 9.29688 9.94531 9.5 9.58594 9.85156L9.03125 10.3984C8.94531 10.4844 8.83594 10.5234 8.73438 10.5234C8.61719 10.5234 8.5 10.4766 8.42188 10.4375C7.9375 10.1797 7.10938 9.46875 6.33594 8.70312C5.57031 7.9375 4.85938 7.10938 4.60938 6.625C4.57031 6.53906 4.52344 6.42969 4.52344 6.3125C4.52344 6.21094 4.55469 6.10938 4.64062 6.02344L5.19531 5.45312C5.53906 5.09375 5.75 4.78125 5.75 4.42188C5.75 4.14062 5.61719 3.83594 5.35938 3.46875L3.67969 1.10156C3.40625 0.726562 3.02344 0.5625 2.60156 0.5625C2.08594 0.5625 1.55469 0.796875 1.09375 1.24219C0.335938 1.96875 0 2.86719 0 3.85938C0 6.10156 1.71094 8.82031 3.96875 11.0703Z" fill="#000000" fill-opacity="0.85"/>
  </g>
</svg>
