<?xml version="1.0" encoding="UTF-8"?>
<!--Generator: Apple Native CoreSVG 175.5-->
<!DOCTYPE svg
  PUBLIC "-//W3C//DTD SVG 1.1//EN"
  "http://www.w3.org/Graphics/SVG/1.1/DTD/svg11.dtd">
<svg
  height="16.1484"
  version="1.1"
  width="14.5469"
  xmlns="http://www.w3.org/2000/svg">
  <g>
    <rect
      height="16.1484"
      opacity="0"
      width="14.5469"
      x="0"
      y="0"/>
    <path
      d="M0 8.07031C0 8.52344 0.257812 8.84375 0.796875 8.92969C1.76562 9.07812 2.14844 9.57031 2.14844 10.8281L2.14844 13.0234C2.14844 15.1484 3.11719 16.1484 5.22656 16.1484C5.35156 16.1484 5.48438 16.125 5.57812 16.0938C5.82031 15.9922 5.95312 15.7969 5.95312 15.5391C5.95312 15.2344 5.82031 15.0781 5.54688 15.0078C5.46875 14.9922 5.39062 14.9766 5.29688 14.9688C3.98438 14.875 3.50781 14.3125 3.50781 12.8672L3.50781 10.2734C3.50781 8.95312 2.8125 8.21875 1.59375 8.10156C1.57031 8.10156 1.57031 8.07031 1.59375 8.07031C2.8125 7.95312 3.50781 7.21875 3.50781 5.89844L3.50781 3.29688C3.50781 1.84375 3.98438 1.29688 5.29688 1.20312C5.42188 1.19531 5.53125 1.17969 5.60938 1.14844C5.83594 1.07031 5.95312 0.898438 5.95312 0.625C5.95312 0.351562 5.8125 0.164062 5.54688 0.0703125C5.42969 0.03125 5.30469 0.015625 5.14844 0.015625C3.10938 0.015625 2.14844 1.03125 2.14844 3.14062L2.14844 5.34375C2.14844 6.58594 1.76562 7.08594 0.796875 7.23438C0.257812 7.32031 0 7.625 0 8.07031ZM14.5469 8.07031C14.5469 7.625 14.2812 7.32031 13.7422 7.23438C12.7812 7.08594 12.3906 6.58594 12.3906 5.34375L12.3906 3.14062C12.3906 1.03125 11.4297 0.015625 9.39062 0.015625C9.23438 0.015625 9.11719 0.03125 9 0.0703125C8.71875 0.164062 8.58594 0.351562 8.58594 0.625C8.58594 0.898438 8.71875 1.0625 8.9375 1.14844C9.01562 1.17969 9.11719 1.19531 9.24219 1.20312C10.5469 1.26562 11.0391 1.84375 11.0391 3.29688L11.0391 5.89844C11.0391 7.22656 11.7344 8.07031 12.9453 8.07031C12.9688 8.07031 12.9688 8.10156 12.9453 8.10156C11.7344 8.10156 11.0391 8.94531 11.0391 10.2734L11.0391 12.8672C11.0391 14.3125 10.5547 14.875 9.24219 14.9688C9.14844 14.9766 9.07812 14.9922 9 15.0078C8.72656 15.0625 8.58594 15.2344 8.58594 15.5391C8.58594 15.8125 8.73438 16.0156 8.96875 16.0938C9.0625 16.125 9.1875 16.1484 9.3125 16.1484C11.4219 16.1484 12.3906 15.1484 12.3906 13.0234L12.3906 10.8281C12.3906 9.57031 12.7812 9.07812 13.7422 8.92969C14.2812 8.84375 14.5469 8.52344 14.5469 8.07031Z"
      fill="#ff453a"/>
  </g>
</svg>
