<?xml version="1.0" encoding="UTF-8"?>
<!--Generator: Apple Native CoreSVG 175.5-->
<!DOCTYPE svg
  PUBLIC "-//W3C//DTD SVG 1.1//EN"
  "http://www.w3.org/Graphics/SVG/1.1/DTD/svg11.dtd">
<svg
  height="15.5078"
  version="1.1"
  width="15.4141"
  xmlns="http://www.w3.org/2000/svg">
  <g>
    <rect
      height="15.5078"
      opacity="0"
      width="15.4141"
      x="0"
      y="0"/>
    <path
      d="M12.0859 10.4688C7.85938 10.4688 5.15625 7.82031 5.15625 3.58594C5.15625 2.71094 5.36719 1.46094 5.64844 0.8125C5.71875 0.632812 5.73438 0.523438 5.73438 0.445312C5.73438 0.234375 5.57812 0 5.27344 0C5.1875 0 5 0.0234375 4.82812 0.0859375C1.9375 1.24219 0 4.35156 0 7.625C0 12.2188 3.5 15.5 8.07812 15.5C11.4453 15.5 14.3594 13.4609 15.3281 10.9141C15.3984 10.7344 15.4141 10.5469 15.4141 10.4766C15.4141 10.1875 15.1719 9.99219 14.9531 9.99219C14.8516 9.99219 14.7656 10.0156 14.6172 10.0625C14.0156 10.2578 13.0469 10.4688 12.0859 10.4688Z"
      fill="#5e5ce6"/>
  </g>
</svg>
