<?xml version="1.0" encoding="UTF-8"?>
<!--Generator: Apple Native CoreSVG 175.5-->
<!DOCTYPE svg
  PUBLIC "-//W3C//DTD SVG 1.1//EN"
  "http://www.w3.org/Graphics/SVG/1.1/DTD/svg11.dtd">
<svg
  height="14.5234"
  version="1.1"
  width="18.4844"
  xmlns="http://www.w3.org/2000/svg">
  <g>
    <rect
      height="14.5234"
      opacity="0"
      width="18.4844"
      x="0"
      y="0"/>
    <path
      d="M3.22656 4.46094C3.40625 3.60938 3.78906 2.49219 4.04688 2.03906C4.25781 1.67188 4.48438 1.50781 4.90625 1.45312C5.5 1.375 6.82812 1.32031 9.24219 1.32031C11.6641 1.32031 12.9922 1.35938 13.5781 1.45312C14 1.51562 14.2188 1.67188 14.4375 2.03906C14.7031 2.48438 15.0625 3.60938 15.2656 4.46094C15.3359 4.75 15.2109 4.85938 14.9141 4.84375C13.6172 4.75781 12.0703 4.67969 9.24219 4.67969C6.42188 4.67969 4.875 4.75781 3.57812 4.84375C3.27344 4.85938 3.15625 4.75 3.22656 4.46094ZM3.60938 10.2344C2.89844 10.2344 2.35156 9.6875 2.35156 8.97656C2.35156 8.25781 2.89844 7.71875 3.60938 7.71875C4.32031 7.71875 4.86719 8.25781 4.86719 8.97656C4.86719 9.6875 4.32031 10.2344 3.60938 10.2344ZM7.17969 9.92188C6.64062 9.92188 6.27344 9.55469 6.27344 9.01562C6.27344 8.48438 6.64062 8.11719 7.17969 8.11719L11.3125 8.11719C11.8438 8.11719 12.2109 8.48438 12.2109 9.01562C12.2109 9.55469 11.8438 9.92188 11.3125 9.92188ZM14.875 10.2344C14.1641 10.2344 13.625 9.6875 13.625 8.97656C13.625 8.25781 14.1641 7.71875 14.875 7.71875C15.5938 7.71875 16.1328 8.25781 16.1328 8.97656C16.1328 9.6875 15.5938 10.2344 14.875 10.2344ZM9.24219 12.3438C11.8672 12.3438 15.3594 12.2109 16.8359 12.0391C17.8984 11.9219 18.4844 11.3359 18.4844 10.3359L18.4844 8.96094C18.4844 7.64062 18.2188 6.90625 17.5 5.96875L16.8359 5.11719C16.5547 3.71094 16.0312 2.23438 15.7656 1.65625C15.3438 0.773438 14.5391 0.25 13.5 0.109375C12.9766 0.0390625 11.2656 0 9.24219 0C7.22656 0 5.51562 0.046875 4.99219 0.109375C3.95312 0.234375 3.14062 0.773438 2.72656 1.65625C2.45312 2.23438 1.9375 3.71094 1.64844 5.11719L0.992188 5.96875C0.265625 6.90625 0 7.64062 0 8.96094L0 10.3359C0 11.3359 0.59375 11.9219 1.64844 12.0391C3.13281 12.2109 6.61719 12.3438 9.24219 12.3438ZM1.03906 14.4922L1.95312 14.4922C2.53906 14.4922 2.99219 14.0391 2.99219 13.4609L2.99219 11.5156L0 10.0938L0 13.4609C0 14.0391 0.453125 14.4922 1.03906 14.4922ZM16.5312 14.4922L17.4531 14.4922C18.0391 14.4922 18.4844 14.0391 18.4844 13.4609L18.4844 10.0938L15.5 11.5156L15.5 13.4609C15.5 14.0391 15.9453 14.4922 16.5312 14.4922Z"
      fill="#5e5ce6"/>
  </g>
</svg>
