<?xml version="1.0" encoding="UTF-8"?>
<!--Generator: Apple Native CoreSVG 175.5-->
<!DOCTYPE svg
  PUBLIC "-//W3C//DTD SVG 1.1//EN"
  "http://www.w3.org/Graphics/SVG/1.1/DTD/svg11.dtd">
<svg
  height="17.2422"
  version="1.1"
  width="13.079"
  xmlns="http://www.w3.org/2000/svg">
  <g>
    <rect
      height="17.2422"
      opacity="0"
      width="13.079"
      x="0"
      y="0"/>
    <path
      d="M8.16651 3.40625C9.11182 3.40625 9.86964 2.64844 9.86964 1.70312C9.86964 0.757812 9.11182-1.77636e-15 8.16651-1.77636e-15C7.2212-1.77636e-15 6.46339 0.757812 6.46339 1.70312C6.46339 2.64844 7.2212 3.40625 8.16651 3.40625ZM5.49464 10.2031L8.48682 11.8828L6.55714 13.5391C6.14307 13.8906 6.15089 14.3516 6.40089 14.6328C6.6587 14.9219 7.11964 14.9922 7.54932 14.625L10.2446 12.3281C10.6118 12.0156 10.5571 11.3437 10.1118 11.0547L7.18214 9.13281L7.76026 7.10937C7.83839 6.82031 8.17432 6.78125 8.3462 7.03125L9.20557 8.28906C9.4087 8.57812 9.77589 8.69531 10.1118 8.53906L12.5884 7.4375C13.0259 7.24219 13.1899 6.85937 13.0024 6.46094C12.8071 6.07031 12.4321 5.95312 11.9946 6.14844L10.0337 7.01562L8.68214 5.14844C7.97901 4.17969 7.10401 3.78125 5.66651 3.89062L2.92432 4.08594C2.48682 4.11719 2.18995 4.39844 2.12745 4.85156L1.76026 7.63281C1.68995 8.11719 1.93214 8.45312 2.36182 8.5C2.79932 8.53906 3.08057 8.28906 3.14307 7.80469L3.47901 5.53125L4.58057 5.45312C4.82276 5.42969 5.06495 5.60156 4.97901 5.90625L4.33839 8.14062C3.96339 9.46094 4.82276 9.82031 5.49464 10.2031ZM0.268074 16.9531C0.557137 17.1953 1.00245 17.2266 1.40089 16.8438L3.93214 14.3359C4.14307 14.125 4.18995 14.0781 4.32276 13.75L5.38526 11L5.12745 10.8594C4.5337 10.5391 4.11964 10.2109 3.83839 9.85937L2.9087 13.1484L0.283699 15.7656C-0.130363 16.1719-0.0522381 16.6719 0.268074 16.9531Z"
      fill="#32d74b"/>
  </g>
</svg>
