<?xml version="1.0" encoding="UTF-8"?>
<!--Generator: Apple Native CoreSVG 175.5-->
<!DOCTYPE svg
  PUBLIC "-//W3C//DTD SVG 1.1//EN"
  "http://www.w3.org/Graphics/SVG/1.1/DTD/svg11.dtd">
<svg
  height="14.3047"
  version="1.1"
  width="13.1484"
  xmlns="http://www.w3.org/2000/svg">
  <g>
    <rect
      height="14.3047"
      opacity="0"
      width="13.1484"
      x="0"
      y="0"/>
    <path
      d="M1.33594 14.3047L11.8125 14.3047C12.6484 14.3047 13.1484 13.9141 13.1484 13.2656C13.1484 11.25 10.625 8.46875 6.57031 8.46875C2.52344 8.46875 0 11.25 0 13.2656C0 13.9141 0.5 14.3047 1.33594 14.3047ZM6.57812 7.07031C8.25 7.07031 9.70312 5.57031 9.70312 3.61719C9.70312 1.6875 8.25 0.257812 6.57812 0.257812C4.90625 0.257812 3.45312 1.71875 3.45312 3.63281C3.45312 5.57031 4.89844 7.07031 6.57812 7.07031Z"
      fill="#bf5af2"/>
  </g>
</svg>
