<?xml version="1.0" encoding="UTF-8"?>
<!--Generator: Apple Native CoreSVG 175.5-->
<!DOCTYPE svg
  PUBLIC "-//W3C//DTD SVG 1.1//EN"
  "http://www.w3.org/Graphics/SVG/1.1/DTD/svg11.dtd">
<svg
  height="13.1953"
  version="1.1"
  width="19.7969"
  xmlns="http://www.w3.org/2000/svg">
  <g>
    <rect
      height="13.1953"
      opacity="0"
      width="19.7969"
      x="0"
      y="0"/>
    <path
      d="M0 12.5156C0 12.9219 0.257812 13.1797 0.664062 13.1797L1.13281 13.1797C1.53125 13.1797 1.79688 12.9219 1.79688 12.5156L1.79688 11.3594C1.88281 11.3828 2.14062 11.3984 2.32812 11.3984L17.4688 11.3984C17.6562 11.3984 17.9141 11.3828 18 11.3594L18 12.5156C18 12.9219 18.2656 13.1797 18.6641 13.1797L19.1328 13.1797C19.5391 13.1797 19.7969 12.9219 19.7969 12.5156L19.7969 7.85938C19.7969 6.36719 18.9688 5.54688 17.4766 5.54688L2.32031 5.54688C0.828125 5.54688 0 6.36719 0 7.85938ZM1.875 4.42969L3.85938 4.42969L3.85938 3.30469C3.85938 2.57812 4.26562 2.17969 5.00781 2.17969L7.92188 2.17969C8.65625 2.17969 9.0625 2.57812 9.0625 3.30469L9.0625 4.42969L10.8359 4.42969L10.8359 3.30469C10.8359 2.57812 11.2422 2.17969 12.0234 2.17969L14.7578 2.17969C15.5391 2.17969 15.9453 2.57812 15.9453 3.30469L15.9453 4.42969L17.9375 4.42969L17.9375 2.1875C17.9375 0.742188 17.1562 0 15.75 0L4.05469 0C2.64844 0 1.875 0.742188 1.875 2.1875Z"
      fill="#6ac4dc"/>
  </g>
</svg>
