<?xml version="1.0" encoding="UTF-8"?>
<!--Generator: Apple Native CoreSVG 175.5-->
<!DOCTYPE svg
  PUBLIC "-//W3C//DTD SVG 1.1//EN"
  "http://www.w3.org/Graphics/SVG/1.1/DTD/svg11.dtd">
<svg
  height="17.8359"
  version="1.1"
  width="18.6898"
  xmlns="http://www.w3.org/2000/svg">
  <g>
    <rect
      height="17.8359"
      opacity="0"
      width="18.6898"
      x="0"
      y="0"/>
    <path
      d="M0.960938 17.2891L2.4375 17.2891C3.05469 17.2891 3.39844 16.9375 3.39844 16.3281L3.39844 3.13281C3.39844 2.51562 3.05469 2.16406 2.4375 2.16406L0.960938 2.16406C0.335938 2.16406 0 2.51562 0 3.13281L0 16.3281C0 16.9375 0.335938 17.2891 0.960938 17.2891ZM5.27344 17.2891L8.4375 17.2891C9.0625 17.2891 9.39844 16.9375 9.39844 16.3281L9.39844 5.79688C9.39844 5.1875 9.0625 4.83594 8.4375 4.83594L5.27344 4.83594C4.64844 4.83594 4.30469 5.1875 4.30469 5.79688L4.30469 16.3281C4.30469 16.9375 4.64844 17.2891 5.27344 17.2891ZM6.01562 7.625C5.73438 7.625 5.52344 7.41406 5.52344 7.14062C5.52344 6.875 5.73438 6.66406 6.01562 6.66406L7.71094 6.66406C7.98438 6.66406 8.1875 6.875 8.1875 7.14062C8.1875 7.41406 7.98438 7.625 7.71094 7.625ZM6.01562 15.4688C5.73438 15.4688 5.52344 15.2578 5.52344 14.9844C5.52344 14.7188 5.73438 14.5078 6.01562 14.5078L7.71094 14.5078C7.98438 14.5078 8.1875 14.7188 8.1875 14.9844C8.1875 15.2578 7.98438 15.4688 7.71094 15.4688ZM11.2734 17.2891L13.2031 17.2891C13.8281 17.2891 14.1641 16.9375 14.1641 16.3281L14.1641 0.96875C14.1641 0.351562 13.8281 0 13.2031 0L11.2734 0C10.6484 0 10.3125 0.351562 10.3125 0.96875L10.3125 16.3281C10.3125 16.9375 10.6484 17.2891 11.2734 17.2891ZM16.5859 17.3281L17.8438 17.1484C18.4531 17.0703 18.75 16.6953 18.6797 16.0781L17.1875 3.11719C17.1172 2.50781 16.75 2.1875 16.125 2.27344L14.875 2.45312C14.2578 2.53125 13.9609 2.90625 14.0312 3.51562L15.5312 16.4766C15.6016 17.0859 15.9688 17.4062 16.5859 17.3281Z"
      fill="#ff9f0a"/>
  </g>
</svg>
