<?xml version="1.0" encoding="UTF-8"?>
<!--Generator: Apple Native CoreSVG 175.5-->
<!DOCTYPE svg
  PUBLIC "-//W3C//DTD SVG 1.1//EN"
  "http://www.w3.org/Graphics/SVG/1.1/DTD/svg11.dtd">
<svg
  height="19.8359"
  version="1.1"
  width="13.1406"
  xmlns="http://www.w3.org/2000/svg">
  <g>
    <rect
      height="19.8359"
      opacity="0"
      width="13.1406"
      x="0"
      y="0" />
    <path
      d="M3.17188 8.78125C2.79688 8.78125 2.48438 8.46094 2.48438 8.09375C2.48438 7.71875 2.79688 7.40625 3.17188 7.40625C3.54688 7.40625 3.85938 7.71094 3.85938 8.09375C3.85938 8.46875 3.54688 8.78125 3.17188 8.78125ZM3.17188 11.6328C2.78906 11.6328 2.48438 11.3203 2.48438 10.9453C2.48438 10.5703 2.78906 10.2656 3.17188 10.2656C3.54688 10.2656 3.85938 10.5625 3.85938 10.9453C3.85938 11.3203 3.54688 11.6328 3.17188 11.6328ZM3.17188 14.6484C2.79688 14.6484 2.48438 14.3359 2.48438 13.9609C2.48438 13.5938 2.79688 13.2734 3.17188 13.2734C3.54688 13.2734 3.85938 13.5859 3.85938 13.9609C3.85938 14.3438 3.54688 14.6484 3.17188 14.6484ZM5.32812 8.59375C5.04688 8.59375 4.8125 8.36719 4.8125 8.09375C4.8125 7.82031 5.04688 7.57812 5.32812 7.57812L10.1562 7.57812C10.4297 7.57812 10.6562 7.82031 10.6562 8.09375C10.6562 8.36719 10.4297 8.59375 10.1562 8.59375ZM5.32812 11.4531C5.03906 11.4531 4.8125 11.2266 4.8125 10.9453C4.8125 10.6641 5.03906 10.4453 5.32812 10.4453L10.1562 10.4453C10.4375 10.4453 10.6562 10.6641 10.6562 10.9453C10.6562 11.2266 10.4375 11.4531 10.1562 11.4531ZM5.32812 14.4688C5.04688 14.4688 4.8125 14.2344 4.8125 13.9609C4.8125 13.6875 5.03906 13.4609 5.32812 13.4609L10.1562 13.4609C10.4375 13.4609 10.6562 13.6875 10.6562 13.9609C10.6562 14.2344 10.4297 14.4688 10.1562 14.4688ZM2.42188 18.9297L10.7188 18.9297C12.3359 18.9297 13.1406 18.1172 13.1406 16.4766L13.1406 4.625C13.1406 2.98438 12.3359 2.17188 10.7969 2.17188L10.6172 2.17188C10.6172 2.20312 10.6172 2.24219 10.6172 2.27344L10.6172 3.19531C10.6172 4.17969 9.95312 4.875 8.98438 4.875L4.15625 4.875C3.1875 4.875 2.52344 4.17969 2.52344 3.19531L2.52344 2.27344C2.52344 2.24219 2.52344 2.20312 2.52344 2.17188L2.34375 2.17188C0.804688 2.17188 0 2.98438 0 4.625L0 16.4766C0 18.1172 0.804688 18.9297 2.42188 18.9297ZM4.15625 3.96875L8.98438 3.96875C9.4375 3.96875 9.71094 3.67969 9.71094 3.19531L9.71094 2.375C9.71094 1.89062 9.4375 1.60156 8.98438 1.60156L8.26562 1.60156C8.21094 0.71875 7.47656 0 6.57031 0C5.66406 0 4.92969 0.71875 4.875 1.60156L4.15625 1.60156C3.70312 1.60156 3.42969 1.89062 3.42969 2.375L3.42969 3.19531C3.42969 3.67969 3.70312 3.96875 4.15625 3.96875ZM6.57031 2.34375C6.19531 2.34375 5.89062 2.03125 5.89062 1.66406C5.89062 1.28125 6.19531 0.976562 6.57031 0.976562C6.94531 0.976562 7.25 1.28125 7.25 1.66406C7.25 2.03125 6.94531 2.34375 6.57031 2.34375Z"
      fill="#6ac4dc" />
  </g>
</svg>
