<?xml version="1.0" encoding="UTF-8"?>
<!--Generator: Apple Native CoreSVG 175.5-->
<!DOCTYPE svg
  PUBLIC "-//W3C//DTD SVG 1.1//EN"
  "http://www.w3.org/Graphics/SVG/1.1/DTD/svg11.dtd">
<svg
  height="17.3359"
  version="1.1"
  width="22.3828"
  xmlns="http://www.w3.org/2000/svg">
  <g>
    <rect
      height="17.3359"
      opacity="0"
      width="22.3828"
      x="0"
      y="0"/>
    <path
      d="M19.9297 15.8594C21.5625 15.8594 22.3828 15.0547 22.3828 13.4453L22.3828 3.89844C22.3828 2.28906 21.5625 1.47656 19.9297 1.47656L6.41406 1.47656C4.77344 1.47656 3.96094 2.28906 3.96094 3.89844L3.96094 8.32812C6.57812 8.32812 8.75 10.3672 8.97656 12.9219C9.96094 11.9141 11.4609 11.2812 13.1719 11.2812C15.7344 11.2812 17.8438 12.7031 18.4375 14.6875L8.80469 14.6875C8.69531 15.1016 8.53125 15.5 8.32031 15.8594ZM13.1719 9.96875C11.6797 9.95312 10.5078 8.71875 10.5 7.04688C10.4922 5.47656 11.6797 4.17969 13.1719 4.17969C14.6641 4.17969 15.8438 5.47656 15.8438 7.04688C15.8438 8.71875 14.6641 9.98438 13.1719 9.96875ZM3.96875 17.3359C6.125 17.3359 7.9375 15.5312 7.9375 13.3672C7.9375 11.1875 6.14844 9.39844 3.96875 9.39844C1.79688 9.39844 0 11.1875 0 13.3672C0 15.5469 1.79688 17.3359 3.96875 17.3359ZM3.96875 15.8516C3.67969 15.8516 3.49219 15.6562 3.49219 15.375L3.49219 13.8438L1.96094 13.8438C1.67969 13.8438 1.48438 13.6562 1.48438 13.3672C1.48438 13.0781 1.67969 12.8828 1.96094 12.8828L3.49219 12.8828L3.49219 11.3594C3.49219 11.0781 3.67969 10.8828 3.96875 10.8828C4.26562 10.8828 4.45312 11.0781 4.45312 11.3594L4.45312 12.8828L5.97656 12.8828C6.26562 12.8828 6.45312 13.0781 6.45312 13.3672C6.45312 13.6562 6.26562 13.8438 5.97656 13.8438L4.45312 13.8438L4.45312 15.375C4.45312 15.6562 4.26562 15.8516 3.96875 15.8516Z"
      fill="#000000"
      fill-opacity="0.85"/>
  </g>
</svg>
