<?xml version="1.0" encoding="UTF-8"?>
<!--Generator: Apple Native CoreSVG 175.5-->
<!DOCTYPE svg
  PUBLIC "-//W3C//DTD SVG 1.1//EN"
  "http://www.w3.org/Graphics/SVG/1.1/DTD/svg11.dtd">
<svg
  height="16.7578"
  version="1.1"
  width="13.1406"
  xmlns="http://www.w3.org/2000/svg">
  <g>
    <rect
      height="16.7578"
      opacity="0"
      width="13.1406"
      x="0"
      y="0"/>
    <path
      d="M2.42188 16.75L10.7188 16.75C12.3359 16.75 13.1406 15.9297 13.1406 14.3047L13.1406 7.21094L7.48438 7.21094C6.48438 7.21094 6.00781 6.73438 6.00781 5.73438L6.00781 0L2.42188 0C0.8125 0 0 0.828125 0 2.45312L0 14.3047C0 15.9375 0.804688 16.75 2.42188 16.75ZM7.50781 6.14062L13.0469 6.14062C13 5.82031 12.7734 5.50781 12.3984 5.125L8.09375 0.742188C7.72656 0.367188 7.40625 0.140625 7.07812 0.0859375L7.07812 5.71875C7.07812 6 7.21875 6.14062 7.50781 6.14062Z"
      fill="#000000"
      fill-opacity="0.85"/>
  </g>
</svg>
