<?xml version="1.0" encoding="UTF-8"?>
<!--Generator: Apple Native CoreSVG 175.5-->
<!DOCTYPE
  svg
  PUBLIC "-//W3C//DTD SVG 1.1//EN"
  "http://www.w3.org/Graphics/SVG/1.1/DTD/svg11.dtd">
<svg
  version="1.1"
  xmlns="http://www.w3.org/2000/svg"
  width="8.6543"
  height="8.66602">
  <g>
    <rect
      height="8.66602"
      opacity="0"
      width="8.6543"
      x="0"
      y="0"/>
    <path
      d="M8.6543 6.48047L8.64844 0.585938C8.64844 0.251953 8.43164 0.0175781 8.08008 0.0175781L2.18555 0.0175781C1.85742 0.0175781 1.63477 0.269531 1.63477 0.550781C1.63477 0.832031 1.88672 1.07227 2.16211 1.07227L4.20117 1.07227L7.06055 0.978516L5.9707 1.93359L0.164062 7.75195C0.0585938 7.85742 0 7.99219 0 8.12109C0 8.40234 0.251953 8.66602 0.544922 8.66602C0.679688 8.66602 0.808594 8.61914 0.914062 8.50781L6.73242 2.69531L7.69922 1.59961L7.59375 4.33594L7.59375 6.50391C7.59375 6.7793 7.83398 7.03711 8.12109 7.03711C8.40234 7.03711 8.6543 6.79688 8.6543 6.48047Z"
      fill="#7fa284"/>
  </g>
</svg>
