<?xml version="1.0" encoding="UTF-8"?>
<!--Generator: Apple Native CoreSVG 175.5-->
<!DOCTYPE svg
  PUBLIC "-//W3C//DTD SVG 1.1//EN"
  "http://www.w3.org/Graphics/SVG/1.1/DTD/svg11.dtd">
<svg
  height="13.4766"
  version="1.1"
  width="17.25"
  xmlns="http://www.w3.org/2000/svg">
  <g>
    <rect
      height="13.4766"
      opacity="0"
      width="17.25"
      x="0"
      y="0"/>
    <path
      d="M8.64062 7.64844C8.96094 7.64844 9.25781 7.5 9.60156 7.15625L16.3984 0.429688C16.1094 0.148438 15.5703 0.015625 14.7969 0.015625L2.21875 0.015625C1.5625 0.015625 1.10156 0.140625 0.84375 0.398438L7.67969 7.15625C8.01562 7.49219 8.3125 7.64844 8.64062 7.64844ZM0.195312 12.2188L5.71875 6.75781L0.179688 1.29688C0.0625 1.51562 0 1.89062 0 2.42969L0 11.0547C0 11.6094 0.0625 12 0.195312 12.2188ZM2.45312 13.4766L15.0312 13.4766C15.6875 13.4766 16.1406 13.3516 16.3984 13.1016L10.7656 7.52344L10.25 8.04688C9.71094 8.5625 9.20312 8.79688 8.64062 8.79688C8.07031 8.79688 7.5625 8.5625 7.03125 8.04688L6.50781 7.52344L0.890625 13.0938C1.1875 13.3516 1.70312 13.4766 2.45312 13.4766ZM17.0625 12.2109C17.1875 11.9844 17.25 11.6016 17.25 11.0547L17.25 2.42969C17.25 1.90625 17.1875 1.53125 17.0781 1.32031L11.5547 6.75781Z"
      fill="#000000"
      fill-opacity="0.85"/>
  </g>
</svg>
